<svg width="384" height="512" viewBox="0 0 384 512" fill="none" xmlns="http://www.w3.org/2000/svg">
<g clip-path="url(#clip0_105_12822)">
<path d="M160.5 32C284 32 384 132.3 384 256C384 379.7 284 480 160.5 480C99.9 480 45 455.8 4.70001 416.6C-0.299988 411.7 -1.59999 404.1 1.60001 397.9C4.80001 391.7 11.7 388.2 18.6 389.4C28.4 391.1 38.4 392 48.7 392C145.6 392 224.2 313.2 224.2 216C224.2 150.2 188.2 92.9 134.9 62.7C128.8 59.2 125.7 52.2 127.2 45.4C128.7 38.6 134.5 33.5 141.5 32.9C147.8 32.4 154.1 32.1 160.5 32.1V32Z" fill="black"/>
</g>
<defs>
<clipPath id="clip0_105_12822">
<rect width="384" height="512" fill="white" transform="matrix(-1 0 0 1 384 0)"/>
</clipPath>
</defs>
</svg>
